<?xml version="1.0" encoding="UTF-8" standalone="no"?>
<svg
   version="1.0"
   width="98pt"
   height="107pt"
   viewBox="0 0 98 107"
   preserveAspectRatio="xMidYMid meet"
   id="svg6"
   sodipodi:docname="Djazztro-Logo.svg"
   inkscape:version="1.1.2 (b8e25be833, 2022-02-05)"
   inkscape:label="Notes"
   inkscape:export-filename="E:\Home\Inkscape\Djazztro-Logo.png"
   inkscape:export-xdpi="269.79999"
   inkscape:export-ydpi="269.79999"
   xmlns:inkscape="http://www.inkscape.org/namespaces/inkscape"
   xmlns:sodipodi="http://sodipodi.sourceforge.net/DTD/sodipodi-0.dtd"
   xmlns:xlink="http://www.w3.org/1999/xlink"
   xmlns="http://www.w3.org/2000/svg"
   xmlns:svg="http://www.w3.org/2000/svg">
  <defs
     id="defs10">
    <linearGradient
       inkscape:collect="always"
       id="linearGradient861">
      <stop
         style="stop-color:#200849;stop-opacity:1"
         offset="0"
         id="stop13647" />
      <stop
         style="stop-color:#3a0d63;stop-opacity:1"
         offset="0.06869742"
         id="stop15185" />
      <stop
         style="stop-color:#660494;stop-opacity:1"
         offset="1"
         id="stop859" />
    </linearGradient>
    <linearGradient
       inkscape:collect="always"
       xlink:href="#linearGradient861"
       id="linearGradient863"
       x1="8.4145021"
       y1="5.2464151"
       x2="71.382965"
       y2="-23.945539"
       gradientUnits="userSpaceOnUse"
       spreadMethod="pad"
       gradientTransform="matrix(0.99812114,0,0,0.99828833,0.53720311,0.18049959)" />
    <clipPath
       clipPathUnits="userSpaceOnUse"
       id="clipPath17712">
      <g
         id="g17730"
         style="stroke-width:1">
        <g
           transform="matrix(0.07242798,0,0,-0.07775282,-23.247204,138.93796)"
           fill="#000000"
           stroke="none"
           id="g17716"
           style="display:inline;stroke-width:1.33257">
          <path
             d="m 685,1751 c -16,-10 -50,-39 -75,-65 -30,-32 -52,-46 -70,-46 -15,0 -42,-12 -62,-27 -43,-34 -153,-163 -138,-163 36,0 236,128 319,204 66,61 69,62 94,44 15,-12 307,-705 307,-729 0,-6 -9,-8 -22,-4 -15,6 -20,4 -15,-6 3,-8 36,-88 72,-179 37,-91 69,-167 71,-169 2,-3 10,4 18,14 13,18 16,15 45,-46 18,-38 28,-73 25,-85 -4,-16 2,-27 24,-43 34,-24 43,-26 59,-10 6,6 42,12 80,13 131,4 223,77 231,184 3,51 -3,76 -67,244 -39,102 -75,207 -81,232 -13,59 4,103 54,141 20,15 36,33 36,40 0,38 -252,101 -299,75 -19,-9 -20,-14 -9,-33 9,-15 13,-68 13,-162 v -140 l 59,-115 c 32,-63 78,-149 102,-191 24,-42 44,-83 44,-92 0,-19 -36,-41 -55,-33 -11,4 -58,83 -83,139 -2,4 8,5 22,1 22,-5 26,-3 26,14 0,11 -8,28 -17,37 -15,16 -17,16 -33,-4 -16,-22 -16,-22 -33,14 -21,45 -21,45 3,45 25,0 27,32 4,54 -17,18 -34,13 -34,-10 0,-25 -16,-15 -33,21 -21,44 -21,49 -2,42 19,-8 28,9 21,39 -7,28 -43,33 -48,7 -3,-14 -9,-10 -26,17 -27,43 -28,53 -3,45 25,-8 33,7 21,39 -11,29 -34,34 -48,10 -7,-13 -13,-10 -30,21 -27,45 -27,45 0,42 28,-3 35,24 13,47 -20,20 -35,21 -35,1 0,-25 -18,-17 -35,15 -20,39 -19,49 5,43 16,-4 20,0 20,19 0,24 -16,48 -32,48 -5,0 -12,-10 -17,-22 -8,-22 -9,-22 -30,12 -28,47 -27,62 4,54 21,-5 25,-3 25,14 0,11 -8,28 -17,37 -15,16 -18,16 -33,-5 l -17,-22 -25,43 c -45,78 -82,153 -103,209 -33,90 -118,126 -190,81 z m 449,-950 c 52,-125 65,-174 37,-145 -14,14 -119,282 -114,288 11,11 20,-5 77,-143 z m 156,-321 c 0,-5 -4,-10 -9,-10 -6,0 -13,5 -16,10 -3,6 1,10 9,10 9,0 16,-4 16,-10 z m 30,-26 c 0,-8 -4,-12 -10,-9 -5,3 -10,10 -10,16 0,5 5,9 10,9 6,0 10,-7 10,-16 z"
             id="path17714"
             style="stroke-width:1.33257" />
        </g>
        <g
           id="g17728"
           style="stroke-width:1">
          <path
             d="m 93.330467,20.112685 c -0.09867,0.142441 -0.198911,0.408332 -0.339867,0.898959 -0.05639,0.200997 -0.151922,0.512783 -0.211438,0.696372 -0.05952,0.182008 -0.264688,0.830902 -0.454198,1.440231 -0.191076,0.609326 -0.364925,1.163261 -0.386852,1.231315 l -0.03915,0.121866 -0.08614,-0.07913 C 91.643674,24.267195 91.45886,24.164322 91.23646,24.10418 c -0.155052,-0.04273 -0.502749,-0.05065 -0.673467,-0.01582 -0.53877,0.107622 -0.992968,0.465304 -1.165251,0.917948 -0.111199,0.292793 -0.13626,0.707454 -0.05795,0.971757 0.08144,0.27697 0.228668,0.517535 0.436971,0.716951 0.479257,0.462141 1.157421,0.591918 1.677401,0.322863 0.424441,-0.21999 0.728284,-0.6299 0.939718,-1.266134 0.03916,-0.117118 0.123732,-0.413077 0.189511,-0.656808 0.06578,-0.243729 0.153487,-0.550769 0.195775,-0.680547 0.06422,-0.201 0.211438,-0.685297 0.731416,-2.421484 0.03915,-0.131362 0.07674,-0.243731 0.08301,-0.250061 0.01408,-0.01582 0.156621,0.376675 0.227099,0.625155 0.08771,0.303871 0.108067,0.439981 0.108067,0.69321 0,0.262721 -0.02035,0.362431 -0.112767,0.553932 -0.05795,0.118699 -0.181676,0.257976 -0.371187,0.419406 -0.111201,0.09496 -0.156622,0.201001 -0.156622,0.373513 0,0.118699 0.0063,0.145603 0.04699,0.227902 0.09554,0.189922 0.28035,0.240565 0.496487,0.139277 0.400945,-0.189923 0.726715,-0.588755 0.880202,-1.076215 0.07361,-0.238983 0.09554,-0.387754 0.09241,-0.669471 -0.0015,-0.400414 -0.04855,-0.574507 -0.278784,-1.041396 -0.151922,-0.307037 -0.368059,-0.693209 -0.764307,-1.372174 -0.336732,-0.57451 -0.360225,-0.602996 -0.430703,-0.50329 z"
             id="path17718"
             style="fill:#000000;stroke:none;stroke-width:0.0999997" />
          <path
             d="m 78.080457,7.9308642 c -0.09867,0.142441 -0.198911,0.408332 -0.339867,0.898959 -0.05639,0.200997 -0.151922,0.512783 -0.211438,0.696372 -0.05952,0.182008 -0.264688,0.8309008 -0.454198,1.4402298 -0.191076,0.609326 -0.364925,1.163261 -0.386852,1.231315 l -0.03915,0.121866 -0.08614,-0.07913 C 76.393664,12.085373 76.20885,11.9825 75.98645,11.922358 c -0.155052,-0.04273 -0.502749,-0.05065 -0.673467,-0.01582 -0.53877,0.107622 -0.992968,0.465304 -1.165251,0.917948 -0.111199,0.292793 -0.13626,0.707454 -0.05795,0.971757 0.08144,0.27697 0.228668,0.517535 0.436971,0.716951 0.479257,0.462141 1.157421,0.591918 1.677401,0.322863 0.424441,-0.21999 0.728284,-0.6299 0.939718,-1.266134 0.03916,-0.117118 0.123732,-0.413077 0.189511,-0.656808 0.06578,-0.243729 0.153487,-0.550769 0.195775,-0.680547 0.06422,-0.201 0.211438,-0.685297 0.731416,-2.4214828 0.03915,-0.131362 0.07674,-0.243731 0.08301,-0.250061 0.01408,-0.01582 0.156621,0.376674 0.227099,0.6251538 0.08771,0.303871 0.108067,0.439981 0.108067,0.69321 0,0.262721 -0.02035,0.362431 -0.112767,0.553932 -0.05795,0.118699 -0.181676,0.257976 -0.371187,0.419406 -0.111201,0.09496 -0.156622,0.201001 -0.156622,0.373513 0,0.118699 0.0063,0.145603 0.04699,0.227902 0.09554,0.189922 0.28035,0.240565 0.496487,0.139277 0.400945,-0.189923 0.726715,-0.588755 0.880202,-1.076215 0.07361,-0.238983 0.09554,-0.387754 0.09241,-0.669471 -0.0015,-0.400414 -0.04855,-0.574507 -0.278784,-1.0413948 -0.151922,-0.307037 -0.368059,-0.693209 -0.764307,-1.372174 -0.336732,-0.57451 -0.360225,-0.602996 -0.430703,-0.50329 z"
             id="path17720"
             style="fill:#000000;stroke:none;stroke-width:0.0999997" />
          <path
             d="m 88.020631,2.3941614 c 0.09867,0.142441 0.198911,0.408332 0.339867,0.898959 0.05639,0.200997 0.151922,0.512783 0.211438,0.696372 0.05952,0.182008 0.264688,0.830902 0.454198,1.440231 0.191076,0.609326 0.364925,1.163261 0.386852,1.231315 l 0.03915,0.121866 0.08614,-0.07913 c 0.169148,-0.155103 0.353962,-0.257976 0.576362,-0.318118 0.155052,-0.04273 0.502749,-0.05065 0.673467,-0.01582 0.53877,0.107622 0.992968,0.465304 1.165251,0.917948 0.111199,0.292793 0.13626,0.707454 0.05795,0.971757 -0.08144,0.27697 -0.228668,0.517535 -0.436971,0.716951 -0.479257,0.462141 -1.157421,0.591918 -1.677401,0.322863 -0.424441,-0.21999 -0.728284,-0.6299 -0.939718,-1.266134 -0.03916,-0.117118 -0.123732,-0.413077 -0.189511,-0.656808 -0.06578,-0.243729 -0.153487,-0.550769 -0.195775,-0.680547 -0.06422,-0.201 -0.211438,-0.685297 -0.731416,-2.421484 -0.03915,-0.131362 -0.07674,-0.243731 -0.08301,-0.250061 -0.01408,-0.01582 -0.156621,0.376675 -0.227099,0.625155 -0.08771,0.303871 -0.108067,0.439981 -0.108067,0.69321 0,0.262721 0.02035,0.362431 0.112767,0.553932 0.05795,0.118699 0.181676,0.257976 0.371187,0.419406 0.111201,0.09496 0.156622,0.201001 0.156622,0.373513 0,0.118699 -0.0063,0.145603 -0.04699,0.227902 -0.09554,0.189922 -0.28035,0.240565 -0.496487,0.139277 -0.400945,-0.189923 -0.726715,-0.588755 -0.880202,-1.076215 -0.07361,-0.238983 -0.09554,-0.387754 -0.09241,-0.669471 0.0015,-0.400414 0.04855,-0.574507 0.278784,-1.041396 0.151922,-0.307037 0.368059,-0.693209 0.764307,-1.372174 0.336732,-0.57451 0.360225,-0.602996 0.430703,-0.50329 z"
             id="path17722"
             style="fill:#000000;stroke:none;stroke-width:0.0999997" />
          <path
             d="m 74.982589,22.397734 c 0.09867,0.142441 0.198911,0.408332 0.339867,0.898959 0.05639,0.200997 0.151922,0.512783 0.211438,0.696372 0.05952,0.182008 0.264688,0.830902 0.454198,1.440231 0.191076,0.609326 0.364925,1.163261 0.386852,1.231315 l 0.03915,0.121866 0.08614,-0.07913 c 0.169148,-0.155103 0.353962,-0.257976 0.576362,-0.318118 0.155052,-0.04273 0.502749,-0.05065 0.673467,-0.01582 0.53877,0.107622 0.992968,0.465304 1.165251,0.917948 0.111199,0.292793 0.13626,0.707454 0.05795,0.971757 -0.08144,0.27697 -0.228668,0.517535 -0.436971,0.716951 -0.479257,0.462141 -1.157421,0.591918 -1.677401,0.322863 -0.424441,-0.21999 -0.728284,-0.6299 -0.939718,-1.266134 -0.03916,-0.117118 -0.123732,-0.413077 -0.189511,-0.656808 -0.06578,-0.243729 -0.153487,-0.550769 -0.195775,-0.680547 -0.06422,-0.201 -0.211438,-0.685297 -0.731416,-2.421484 -0.03915,-0.131362 -0.07674,-0.243731 -0.08301,-0.250061 -0.01408,-0.01582 -0.156621,0.376675 -0.227099,0.625155 -0.08771,0.303871 -0.108067,0.439981 -0.108067,0.69321 0,0.262721 0.02035,0.362431 0.112767,0.553932 0.05795,0.118699 0.181676,0.257976 0.371187,0.419406 0.111201,0.09496 0.156622,0.201001 0.156622,0.373513 0,0.118699 -0.0063,0.145603 -0.04699,0.227902 -0.09554,0.189922 -0.28035,0.240565 -0.496487,0.139277 -0.400945,-0.189923 -0.726715,-0.588755 -0.880202,-1.076215 -0.07361,-0.238983 -0.09554,-0.387754 -0.09241,-0.669471 0.0015,-0.400414 0.04855,-0.574507 0.278784,-1.041396 0.151922,-0.307037 0.368059,-0.693209 0.764307,-1.372174 0.336732,-0.57451 0.360225,-0.602996 0.430703,-0.50329 z"
             id="path17724"
             style="fill:#000000;stroke:none;stroke-width:0.0999997" />
          <path
             d="m 85.403194,15.789411 c -0.09867,0.142441 -0.198911,0.408332 -0.339867,0.898959 -0.05639,0.200997 -0.151922,0.512783 -0.211438,0.696372 -0.05952,0.182008 -0.264688,0.830902 -0.454198,1.440231 -0.191076,0.609326 -0.364925,1.163261 -0.386852,1.231315 l -0.03915,0.121866 -0.08614,-0.07913 c -0.169148,-0.155103 -0.353962,-0.257976 -0.576362,-0.318118 -0.155052,-0.04273 -0.502749,-0.05065 -0.673467,-0.01582 -0.53877,0.107622 -0.992968,0.465304 -1.165251,0.917948 -0.111199,0.292793 -0.13626,0.707454 -0.05795,0.971757 0.08144,0.27697 0.228668,0.517535 0.436971,0.716951 0.479257,0.462141 1.157421,0.591918 1.677401,0.322863 0.424441,-0.21999 0.728284,-0.6299 0.939718,-1.266134 0.03916,-0.117118 0.123732,-0.413077 0.189511,-0.656808 0.06578,-0.243729 0.153487,-0.550769 0.195775,-0.680547 0.06422,-0.201 0.211438,-0.685297 0.731416,-2.421484 0.03915,-0.131362 0.07674,-0.243731 0.08301,-0.250061 0.01408,-0.01582 0.156621,0.376675 0.227099,0.625155 0.08771,0.303871 0.108067,0.439981 0.108067,0.69321 0,0.262721 -0.02035,0.362431 -0.112767,0.553932 -0.05795,0.118699 -0.181676,0.257976 -0.371187,0.419406 -0.111201,0.09496 -0.156622,0.201001 -0.156622,0.373513 0,0.118699 0.0063,0.145603 0.04699,0.227902 0.09554,0.189922 0.28035,0.240565 0.496487,0.139277 0.400945,-0.189923 0.726715,-0.588755 0.880202,-1.076215 C 86.8582,19.136768 86.88013,18.987997 86.877,18.70628 86.8755,18.305866 86.82845,18.131773 86.598216,17.664884 86.446294,17.357847 86.230157,16.971675 85.833909,16.29271 85.497177,15.7182 85.473684,15.689714 85.403206,15.78942 Z"
             id="path17726"
             style="fill:#000000;stroke:none;stroke-width:0.0999997" />
        </g>
      </g>
    </clipPath>
  </defs>
  <sodipodi:namedview
     id="namedview8"
     pagecolor="#505050"
     bordercolor="#eeeeee"
     borderopacity="1"
     inkscape:pageshadow="0"
     inkscape:pageopacity="0"
     inkscape:pagecheckerboard="0"
     inkscape:document-units="pt"
     showgrid="false"
     inkscape:zoom="4.19925"
     inkscape:cx="48.461035"
     inkscape:cy="53.819134"
     inkscape:window-width="1920"
     inkscape:window-height="1057"
     inkscape:window-x="-1928"
     inkscape:window-y="-8"
     inkscape:window-maximized="1"
     inkscape:current-layer="svg6" />
  <rect
     style="display:inline;fill:url(#linearGradient863);fill-opacity:1;stroke:#6d7c95;stroke-width:4.03;stroke-linecap:square;stroke-linejoin:bevel;stroke-opacity:0"
     id="rect855"
     width="101.28587"
     height="110.12629"
     x="-1.2629161"
     y="-1.7680826"
     rx="0.74859089"
     ry="0.74871629"
     clip-path="url(#clipPath17712)"
     transform="matrix(1.0018824,0,0,1.0017146,-0.53821434,-0.18080911)" />
</svg>
